<?xml version="1.0" encoding="iso-8859-1"?>
<!-- Uploaded to: SVG Repo, www.svgrepo.com, Generator: SVG Repo Mixer Tools -->
<svg fill="#fff"
	 stroke="#000"
	 height="800px"
	 width="800px"
	 version="1.1"
	 id="Layer_1"
	 xmlns="http://www.w3.org/2000/svg" xmlns:xlink="http://www.w3.org/1999/xlink"
	 viewBox="0 0 511.147 511.147"
	 xml:space="preserve">
<g transform="translate(1 1)">
	<g>
		<path d="M393.667,159.427L343.32,16.067C339.907,5.827,330.52-1,319.427-1H271.64h-34.133h-51.2
			c-8.533,0-16.213,3.413-20.48,10.24c-2.787,3.716-4.301,7.94-4.697,12.392l-45.65,137.795c-4.267,12.8,2.56,27.307,15.36,32.427
			l115.2,43.302v3.866c-14.679,3.814-25.6,17.216-25.6,33.046c0,14.939,9.73,27.706,23.162,32.303l-19.749,60.71h-71.68
			c-3.413,0-6.827,2.56-8.533,5.973c-1.707,3.413,0,6.827,2.56,9.387l57.173,43.52l-25.6,75.093c-0.853,3.413,0,6.827,3.413,9.387
			c1.707,0.853,3.413,1.707,5.12,1.707s3.413,0,5.12-1.707l63.147-46.933l64,46.933c3.413,2.56,6.827,1.707,10.24,0
			c3.413-1.707,4.267-5.973,3.413-9.387l-25.6-75.093l57.173-43.52c2.56-1.707,3.413-5.973,2.56-9.387
			c-0.853-3.413-4.267-5.973-7.68-5.973H287l-19.932-61.273c12.638-5.014,21.639-17.373,21.639-31.741
			c0-15.829-10.921-29.232-25.6-33.046v-3.866l67.074-25.212l12.286-4.437c0.464-0.186,0.903-0.418,1.323-0.679l34.517-12.974
			C391.107,186.733,397.933,172.227,393.667,159.427z M314.291,197.781L249.453,16.067h16.213l63.025,176.301L314.291,197.781z
			 M186.307,16.067v-0.853h45.372l68.02,188.054l-40.005,15.039L178.627,27.16c-0.464-0.697-0.734-1.457-0.853-2.228
			c0-0.453,0-0.876,0-1.185c0-0.188-0.011-0.375-0.021-0.562c0.183-1.457,0.837-2.814,1.728-3.704
			C181.187,17.773,183.747,16.067,186.307,16.067z M179.549,191.666l22.971-62.959l8.533,20.48l-17.067,47.787l-4.836-1.707
			L179.549,191.666z M220.683,170.863l18.218,43.06l-29.628-11.111L220.683,170.863z M131.693,164.547L169.24,50.2l23.427,54.854
			l-29.111,80.615l-26.743-10.029C132.547,173.933,129.987,168.813,131.693,164.547z M279.32,382.147h52.053L289.56,413.72
			c-2.56,1.707-3.413,5.973-2.56,9.387l18.773,54.613l-46.08-34.133c-1.707-0.853-3.413-1.707-5.12-1.707
			c-1.707,0-3.413,0.853-5.12,2.56l-46.08,34.133l18.773-55.467c1.707-3.413,0-6.827-2.56-9.387l-41.813-31.573h52.053
			c3.413,0,6.827-2.56,7.68-5.973l17.067-51.2l17.067,51.2C272.493,379.587,275.907,382.147,279.32,382.147z M271.64,272.067
			c0,8.119-5.75,14.95-13.376,16.65c-0.852-0.282-1.793-0.437-2.838-0.437c-1.255,0-2.432,0.226-3.496,0.626
			c-8.14-1.283-14.424-8.353-14.424-16.839c0-6.28,3.447-11.782,8.533-14.746v6.212c0,5.12,3.413,8.533,8.533,8.533
			c5.12,0,8.533-4.267,8.533-8.533v-6.212C268.193,260.284,271.64,265.787,271.64,272.067z M373.187,175.64l-28.504,10.716
			L283.01,15.213h36.417c3.413,0,6.827,2.56,7.68,5.973l51.2,143.36C380.013,168.813,377.453,173.933,373.187,175.64z"/>
	</g>
</g>
</svg>